<svg xmlns="http://www.w3.org/2000/svg" xmlns:xlink="http://www.w3.org/1999/xlink" width="1024" zoomAndPan="magnify" viewBox="0 0 768 767.999994" height="1024" preserveAspectRatio="xMidYMid meet" version="1.0"><defs><clipPath id="id1"><path d="M 244.34375 286 L 384 286 L 384 409.75 L 244.34375 409.75 Z M 244.34375 286 " clip-rule="nonzero"/></clipPath><clipPath id="id2"><path d="M 383 222.25 L 523.34375 222.25 L 523.34375 346 L 383 346 Z M 383 222.25 " clip-rule="nonzero"/></clipPath></defs><g clip-path="url(#id1)"><path fill="#0652e9" d="M 338.289062 373.832031 L 338.289062 390.800781 L 261.382812 355.097656 L 261.382812 341.324219 L 338.289062 305.617188 L 338.289062 322.59375 L 280.128906 348.050781 L 280.128906 348.371094 Z M 383.960938 286.761719 L 255.351562 286.761719 C 249.277344 286.761719 244.355469 291.679688 244.355469 297.75 L 244.355469 398.675781 C 244.355469 404.742188 249.277344 409.660156 255.351562 409.660156 L 348.261719 409.660156 L 383.960938 286.761719 " fill-opacity="1" fill-rule="nonzero"/></g><g clip-path="url(#id2)"><path fill="#62e1e9" d="M 506.335938 291.125 L 429.429688 326.351562 L 429.429688 309.378906 L 488.871094 283.921875 L 488.871094 283.601562 L 429.429688 258.140625 L 429.429688 241.167969 L 506.335938 276.394531 Z M 419.667969 222.3125 L 383.960938 345.210938 L 512.367188 345.210938 C 518.441406 345.210938 523.363281 340.292969 523.363281 334.222656 L 523.363281 233.296875 C 523.363281 227.230469 518.441406 222.3125 512.367188 222.3125 L 419.667969 222.3125 " fill-opacity="1" fill-rule="nonzero"/></g><path stroke-linecap="round" transform="matrix(2.362309, -7.117758, 6.95519, 2.308354, 342.504684, 400.875411)" fill="none" stroke-linejoin="miter" d="M 0.500086 0.000209718 L 24.602446 0.000248088 " stroke="#0652e9" stroke-width="1" stroke-opacity="1" stroke-miterlimit="4"/><path stroke-linecap="round" transform="matrix(-2.083439, 7.214636, -7.040553, -2.033168, 423.226062, 222.301811)" fill="none" stroke-linejoin="miter" d="M 0.500159 0.0000592751 L 25.568486 -0.000193116 " stroke="#62e1e9" stroke-width="1" stroke-opacity="1" stroke-miterlimit="4"/></svg>