<svg xmlns="http://www.w3.org/2000/svg" xmlns:xlink="http://www.w3.org/1999/xlink" width="500" zoomAndPan="magnify" viewBox="0 0 375 374.999991" height="500" preserveAspectRatio="xMidYMid meet" version="1.0"><defs><clipPath id="id1"><path d="M 130 112.5 L 245.4375 112.5 L 245.4375 262.5 L 130 262.5 Z M 130 112.5 " clip-rule="nonzero"/></clipPath></defs><g clip-path="url(#id1)"><path fill="#ffffff" d="M 242.867188 262.5 L 132.507812 262.5 C 131.125 262.5 130 261.382812 130 260 L 130 115 C 130 113.617188 131.125 112.5 132.507812 112.5 L 242.867188 112.5 C 244.25 112.5 245.375 113.617188 245.375 115 L 245.375 260 C 245.375 261.382812 244.25 262.5 242.867188 262.5 Z M 135.015625 257.5 L 240.359375 257.5 L 240.359375 117.5 L 135.015625 117.5 Z M 135.015625 257.5 " fill-opacity="1" fill-rule="nonzero"/></g><path fill="#ffffff" d="M 160.097656 150 C 153.183594 150 147.558594 144.390625 147.558594 137.5 C 147.558594 130.609375 153.183594 125 160.097656 125 C 167.011719 125 172.636719 130.609375 172.636719 137.5 C 172.636719 144.390625 167.011719 150 160.097656 150 Z M 160.097656 130 C 155.949219 130 152.574219 133.363281 152.574219 137.5 C 152.574219 141.636719 155.949219 145 160.097656 145 C 164.246094 145 167.621094 141.636719 167.621094 137.5 C 167.621094 133.363281 164.246094 130 160.097656 130 Z M 160.097656 130 " fill-opacity="1" fill-rule="nonzero"/><path fill="#ffffff" d="M 177.65625 172.5 L 172.636719 172.5 C 172.636719 165.609375 167.011719 160 160.097656 160 C 153.183594 160 147.558594 165.609375 147.558594 172.5 L 142.539062 172.5 C 142.539062 162.851562 150.417969 155 160.097656 155 C 169.78125 155 177.65625 162.851562 177.65625 172.5 Z M 177.65625 172.5 " fill-opacity="1" fill-rule="nonzero"/><path fill="#ffffff" d="M 230.324219 152.5 L 185.179688 152.5 C 183.792969 152.5 182.671875 151.382812 182.671875 150 L 182.671875 130 C 182.671875 128.617188 183.792969 127.5 185.179688 127.5 L 230.324219 127.5 C 231.710938 127.5 232.835938 128.617188 232.835938 130 L 232.835938 150 C 232.835938 151.382812 231.710938 152.5 230.324219 152.5 Z M 187.6875 147.5 L 227.816406 147.5 L 227.816406 132.5 L 187.6875 132.5 Z M 187.6875 147.5 " fill-opacity="1" fill-rule="nonzero"/><path fill="#ffffff" d="M 190.195312 250 L 145.050781 250 C 143.664062 250 142.539062 248.882812 142.539062 247.5 L 142.539062 232.5 C 142.539062 231.117188 143.664062 230 145.050781 230 L 190.195312 230 C 191.582031 230 192.703125 231.117188 192.703125 232.5 L 192.703125 247.5 C 192.703125 248.882812 191.582031 250 190.195312 250 Z M 147.558594 245 L 187.6875 245 L 187.6875 235 L 147.558594 235 Z M 147.558594 245 " fill-opacity="1" fill-rule="nonzero"/><path fill="#ffffff" d="M 182.671875 157.5 L 232.835938 157.5 L 232.835938 162.5 L 182.671875 162.5 Z M 182.671875 157.5 " fill-opacity="1" fill-rule="nonzero"/><path fill="#ffffff" d="M 182.671875 167.5 L 232.835938 167.5 L 232.835938 172.5 L 182.671875 172.5 Z M 182.671875 167.5 " fill-opacity="1" fill-rule="nonzero"/><path fill="#ffffff" d="M 197.71875 232.5 L 232.835938 232.5 L 232.835938 237.5 L 197.71875 237.5 Z M 197.71875 232.5 " fill-opacity="1" fill-rule="nonzero"/><path fill="#ffffff" d="M 197.71875 242.5 L 232.835938 242.5 L 232.835938 247.5 L 197.71875 247.5 Z M 197.71875 242.5 " fill-opacity="1" fill-rule="nonzero"/><path fill="#ffffff" d="M 142.539062 180 L 232.835938 180 L 232.835938 185 L 142.539062 185 Z M 142.539062 180 " fill-opacity="1" fill-rule="nonzero"/><path fill="#ffffff" d="M 142.539062 190 L 232.835938 190 L 232.835938 195 L 142.539062 195 Z M 142.539062 190 " fill-opacity="1" fill-rule="nonzero"/><path fill="#ffffff" d="M 142.539062 200 L 232.835938 200 L 232.835938 205 L 142.539062 205 Z M 142.539062 200 " fill-opacity="1" fill-rule="nonzero"/><path fill="#ffffff" d="M 142.539062 210 L 232.835938 210 L 232.835938 215 L 142.539062 215 Z M 142.539062 210 " fill-opacity="1" fill-rule="nonzero"/><path fill="#ffffff" d="M 142.539062 220 L 232.835938 220 L 232.835938 225 L 142.539062 225 Z M 142.539062 220 " fill-opacity="1" fill-rule="nonzero"/></svg>